<svg xmlns="http://www.w3.org/2000/svg" viewBox="0 0 1000 1000"><path fill="#444444" d="M134 431l168-168c15-15 15-39 0-53v-1a38 38 0 0 0-54 0L57 400l-4 3-1 1c-7 7-11 17-11 27s4 20 11 27l1 1 4 3 191 191c15 15 39 15 54 0s15-39 0-54z"/><path fill="#444444" d="M764 392H368l129-129c14-15 14-39 0-53l-1-1a38 38 0 0 0-54 0L251 400l-4 3v1l-4 4-1 1c-4 7-6 14-6 22s2 15 6 22l1 1 4 4v1l4 3 191 191c15 15 39 15 54 0h1c14-15 14-39 0-54L368 470h396c65 0 117 52 117 117v176a39 39 0 1 0 78 0V587c0-108-87-195-195-195z"/></svg>